<?xml version="1.0" encoding="utf-8"?><svg viewBox="0 0 24 24" xmlns="http://www.w3.org/2000/svg" xmlns:xlink="http://www.w3.org/1999/xlink"><style>:root>svg{display:none}:root>svg:target{display:block}</style><svg fill="none" viewBox="0 0 24 24" id="fb" xmlns="http://www.w3.org/2000/svg"><g clip-path="url(#aclip0_218_269)"><path d="M9.65 21.6v-9.01H7.2V9.348h2.45v-2.77c0-2.178 1.448-4.177 4.784-4.177 1.35 0 2.35.126 2.35.126l-.08 3.029s-1.018-.01-2.13-.01c-1.202 0-1.395.54-1.395 1.434v2.368H16.8l-.157 3.244h-3.464V21.6H9.651z" fill="#fff"/></g><defs><clipPath id="aclip0_218_269"><path fill="#fff" transform="translate(7.2 2.4)" d="M0 0h9.6v19.2H0z"/></clipPath></defs></svg><svg fill="none" viewBox="0 0 24 24" id="instagram" xmlns="http://www.w3.org/2000/svg"><g clip-path="url(#bclip0_218_278)"><path d="M12 8.81A3.197 3.197 0 008.81 12 3.197 3.197 0 0012 15.19 3.197 3.197 0 0015.19 12 3.197 3.197 0 0012 8.81zM21.568 12c0-1.32.012-2.63-.063-3.949-.074-1.531-.423-2.89-1.543-4.01-1.122-1.123-2.48-1.47-4.011-1.544-1.321-.074-2.63-.062-3.949-.062-1.32 0-2.63-.012-3.948.062-1.532.074-2.891.424-4.011 1.544-1.122 1.122-1.47 2.479-1.544 4.01-.074 1.321-.062 2.63-.062 3.949s-.012 2.63.062 3.949c.075 1.531.424 2.89 1.544 4.01 1.122 1.123 2.48 1.47 4.01 1.544 1.322.074 2.63.062 3.95.062 1.32 0 2.63.012 3.948-.062 1.532-.074 2.89-.424 4.01-1.544 1.123-1.122 1.47-2.479 1.544-4.01.077-1.319.063-2.628.063-3.949zM12 16.908A4.901 4.901 0 017.092 12 4.901 4.901 0 0112 7.092 4.901 4.901 0 0116.908 12 4.901 4.901 0 0112 16.908zm5.11-8.87a1.145 1.145 0 01-1.147-1.147c0-.634.512-1.146 1.146-1.146a1.145 1.145 0 01.811 1.957 1.146 1.146 0 01-.81.335z" fill="#fff"/></g><defs><clipPath id="bclip0_218_278"><path fill="#fff" transform="translate(2.4 2.4)" d="M0 0h19.2v19.2H0z"/></clipPath></defs></svg><svg fill="none" viewBox="0 0 24 24" id="twitter" xmlns="http://www.w3.org/2000/svg"><g clip-path="url(#cclip0_218_273)"><path d="M21.301 6.521a7.788 7.788 0 01-2.233.612 3.898 3.898 0 001.71-2.152 7.763 7.763 0 01-2.47.944 3.89 3.89 0 00-6.626 3.547A11.043 11.043 0 013.666 5.41 3.89 3.89 0 004.87 10.6a3.88 3.88 0 01-1.761-.487v.05a3.89 3.89 0 003.12 3.814 3.917 3.917 0 01-1.757.066 3.891 3.891 0 003.633 2.7 7.803 7.803 0 01-4.83 1.666c-.31 0-.62-.018-.928-.055a11 11 0 005.96 1.747c7.154 0 11.065-5.925 11.065-11.064 0-.167-.004-.335-.012-.502a7.906 7.906 0 001.94-2.012l.001-.003z" fill="#fff"/></g><defs><clipPath id="cclip0_218_273"><path fill="#fff" transform="translate(2.4 2.4)" d="M0 0h19.2v19.2H0z"/></clipPath></defs></svg></svg>